<svg width="800" height="800" viewBox="0 0 800 800" fill="none" xmlns="http://www.w3.org/2000/svg">
<path d="M286.374 521.866V591.531H356.039L286.374 521.866Z" fill="black"/>
<path d="M364.746 521.866V591.531H434.411L364.746 521.866Z" fill="black"/>
<path d="M286.374 443.493V513.158H356.039L286.374 443.493Z" fill="black"/>
<path d="M286.374 286.746V356.411H356.039L286.374 286.746Z" fill="black"/>
<path d="M364.746 286.746V356.411H434.411L364.746 286.746Z" fill="black"/>
<path d="M521.493 130V199.665H591.158L521.493 130Z" fill="black"/>
<path d="M286.374 208.373V278.038H356.039L286.374 208.373Z" fill="black"/>
<path d="M434.411 600.239H364.746V669.904H434.411V600.239Z" fill="black"/>
<path d="M356.039 600.239H286.374V669.904H356.039V600.239Z" fill="black"/>
<path d="M512.784 600.239H443.119V669.904H512.784V600.239Z" fill="black"/>
<path d="M521.493 399.953C521.493 419.19 537.088 434.785 556.326 434.785C575.563 434.785 591.158 419.19 591.158 399.953C591.158 380.715 575.563 365.12 556.326 365.12C537.088 365.12 521.493 380.715 521.493 399.953Z" fill="black"/>
<path d="M521.493 635.072C521.493 654.309 537.088 669.904 556.326 669.904C575.563 669.904 591.158 654.309 591.158 635.072C591.158 615.834 575.563 600.239 556.326 600.239C537.088 600.239 521.493 615.834 521.493 635.072Z" fill="black"/>
<path d="M512.784 365.12H443.119V434.785H512.784V365.12Z" fill="black"/>
<path d="M364.746 399.953C364.746 419.19 380.341 434.785 399.579 434.785C418.816 434.785 434.411 419.19 434.411 399.953C434.411 380.715 418.816 365.12 399.579 365.12C380.341 365.12 364.746 380.715 364.746 399.953Z" fill="black"/>
<path d="M356.039 365.12H286.374V434.785H356.039V365.12Z" fill="black"/>
<path d="M208 243.206C208 262.443 223.595 278.038 242.833 278.038C262.07 278.038 277.665 262.443 277.665 243.206C277.665 223.968 262.07 208.373 242.833 208.373C223.595 208.373 208 223.968 208 243.206Z" fill="black"/>
<path d="M277.665 286.746H208V356.411H277.665V286.746Z" fill="black"/>
<path d="M277.665 443.493H208V513.158H277.665V443.493Z" fill="black"/>
<path d="M208 556.699C208 575.936 223.595 591.531 242.833 591.531C262.07 591.531 277.665 575.936 277.665 556.699C277.665 537.461 262.07 521.866 242.833 521.866C223.595 521.866 208 537.461 208 556.699Z" fill="black"/>
<path d="M512.784 130H443.119V199.665H512.784V130Z" fill="black"/>
<path d="M434.411 130H364.746V199.665H434.411V130Z" fill="black"/>
<path d="M356.039 130H286.374V199.665H356.039V130Z" fill="black"/>
</svg>
