<svg width="100" height="32" viewBox="0 0 100 32" fill="none" xmlns="http://www.w3.org/2000/svg">
<g clip-path="url(#clip0_61_2909)">
<rect width="32" height="32" rx="16" fill="#F36FD5"/>
<g clip-path="url(#clip1_61_2909)">
<path d="M0.615234 25.8496H36.8565L32.228 21.5412L27.4493 4.30762L18.6478 10.2317L7.77547 4.30762L4.15134 21.0027L0.615234 25.8496Z" fill="#280A46"/>
<path d="M4.59108 25.8501L2.08008 32.3127H33.4132L31.1922 25.8501H4.59108Z" fill="#280A46"/>
<path d="M17.4563 25.311C17.4563 27.6268 15.6546 29.501 13.4283 29.501C11.2021 29.501 9.40039 27.6268 9.40039 25.311" fill="white"/>
<path d="M28.3293 25.311C28.3293 27.6268 26.5276 29.501 24.3014 29.501C22.0751 29.501 20.2734 27.6268 20.2734 25.311" fill="white"/>
<path d="M14.4108 28.0037C15.5545 28.0037 16.4817 27.0392 16.4817 25.8495C16.4817 24.6598 15.5545 23.6953 14.4108 23.6953C13.267 23.6953 12.3398 24.6598 12.3398 25.8495C12.3398 27.0392 13.267 28.0037 14.4108 28.0037Z" fill="#280A46"/>
<path d="M25.0709 28.0037C26.2147 28.0037 27.1419 27.0392 27.1419 25.8495C27.1419 24.6598 26.2147 23.6953 25.0709 23.6953C23.9272 23.6953 23 24.6598 23 25.8495C23 27.0392 23.9272 28.0037 25.0709 28.0037Z" fill="#280A46"/>
</g>
</g>
<path d="M36.866 30V2.6622H54.4403V7.34868H42.0212V13.8707H53.3468V18.5572H42.0212V25.3135H54.6746V30H36.866ZM56.6942 30V2.6622H61.615V30H56.6942ZM68.3176 30V14.6908H63.3968V10.6292H68.3176V7.03625C68.3176 5.70841 68.7082 4.65395 69.4892 3.87287C70.2964 3.06576 71.3378 2.6622 72.6136 2.6622H77.6906V6.72381H74.3319C73.6029 6.72381 73.2384 7.11435 73.2384 7.89543V10.6292H78.3154V14.6908H73.2384V30H68.3176ZM85.8815 30.5468C84.5016 30.5468 83.2649 30.3124 82.1714 29.8438C81.0779 29.3491 80.2057 28.6461 79.5548 27.7349C78.9299 26.7976 78.6175 25.665 78.6175 24.3372C78.6175 23.0093 78.9299 21.9028 79.5548 21.0176C80.2057 20.1063 81.0909 19.4294 82.2105 18.9868C83.3561 18.5181 84.6579 18.2838 86.1159 18.2838H91.4272V17.1903C91.4272 16.279 91.1408 15.537 90.568 14.9642C89.9952 14.3654 89.084 14.066 87.8342 14.066C86.6106 14.066 85.6993 14.3524 85.1005 14.9252C84.5016 15.4719 84.1111 16.1879 83.9288 17.0731L79.3986 15.55C79.711 14.5607 80.2057 13.6624 80.8826 12.8553C81.5856 12.0221 82.5099 11.3582 83.6555 10.8635C84.8271 10.3428 86.246 10.0825 87.9124 10.0825C90.4639 10.0825 92.4817 10.7203 93.9657 11.9961C95.4498 13.2719 96.1918 15.1204 96.1918 17.5418V24.7668C96.1918 25.5478 96.5563 25.9384 97.2853 25.9384H98.8475V30H95.5669C94.6036 30 93.8095 29.7657 93.1846 29.297C92.5598 28.8284 92.2473 28.2035 92.2473 27.4224V27.3834H91.5053C91.4012 27.6958 91.1669 28.1124 90.8023 28.6331C90.4378 29.1278 89.8651 29.5704 89.084 29.9609C88.3029 30.3515 87.2354 30.5468 85.8815 30.5468ZM86.7407 26.5632C88.1206 26.5632 89.2402 26.1857 90.0994 25.4307C90.9846 24.6496 91.4272 23.6212 91.4272 22.3454V21.9549H86.4674C85.5561 21.9549 84.8401 22.1501 84.3194 22.5407C83.7987 22.9312 83.5383 23.478 83.5383 24.181C83.5383 24.8839 83.8117 25.4567 84.3584 25.8993C84.9052 26.3419 85.6993 26.5632 86.7407 26.5632Z" fill="#F36FD5"/>
<defs>
<clipPath id="clip0_61_2909">
<rect width="32" height="32" rx="16" fill="white"/>
</clipPath>
<clipPath id="clip1_61_2909">
<rect width="36.2412" height="28.0046" fill="white" transform="translate(0.615234 4.30762)"/>
</clipPath>
</defs>
</svg>
