<svg width="523" height="410" viewBox="0 0 523 410" fill="none" xmlns="http://www.w3.org/2000/svg">
<path d="M37.6 1.93337C36.5333 3.00004 36 8.46671 36 17.5334C35.8667 36.4667 36 36.3334 18.8 36.3334C-0.666675 36.3334 -7.15614e-06 35.5334 -7.15614e-06 56.3334C-7.15614e-06 72.0667 0.26666 73.6667 2.53333 75C3.99999 75.6667 11.4667 76.3334 19.3333 76.3334C33.2 76.3334 33.4667 76.3334 34.6667 79.8C35.4667 81.6667 36 89 36 96.2C36 104.467 36.5333 109.667 37.6 110.733C38.8 111.933 48 112.333 71.0667 112.333C90.4 112.333 103.867 112.867 105.467 113.667C107.733 115 108 116.6 108 128.733C108 137.667 107.467 143 106.4 144.067C105.2 145.267 95.8667 145.667 72.5333 145.667C44.9333 145.667 39.8667 145.933 38.1333 147.8C36.4 149.4 36 153.133 36 165.667C36 187.267 33.3333 185.933 75.0667 185.4C93.0667 185.133 108.267 184.467 108.933 183.933C109.467 183.267 110.267 175.933 110.667 167.4C111.467 148.2 111.333 148.333 129.867 148.333C137.333 148.333 144.267 147.667 145.333 147C148.4 145.133 149.067 117.4 146.133 113C144 109.8 143.333 109.667 130.267 109.667C111.467 109.667 111.467 109.667 110.933 91.4C110.667 83.5334 109.867 76.2 109.067 75.2667C108 74.0667 99.7333 73.6667 76.1333 73.6667C36.5333 73.6667 38.6667 74.6 38.6667 56.3334C38.6667 46.2 39.2 42.7334 40.8 41.1334C42.5333 39.2667 47.6 39 75.2 39C98.5333 39 107.867 38.6 109.067 37.4C111.333 35.1334 111.333 4.20004 109.067 1.93337C106.8 -0.333292 39.8667 -0.333292 37.6 1.93337Z" fill="black"/>
<path d="M225.333 2.86668C224.667 4.33334 224 11.2667 224 18.3333C224 36.6 224.267 36.3333 207.2 36.3333C199.467 36.3333 192 37 190.533 37.6667C188.133 39 188 41 188 92.0667C188 131.533 188.4 145.533 189.6 146.733C190.667 147.8 196 148.333 204.933 148.333C223.6 148.333 224 148.733 224 167.533C224 185.4 224.267 185.667 243.333 185.667C262.4 185.667 262.667 185.4 262.667 167.533C262.667 149.267 263.467 148.333 279.467 148.333C296 148.333 296 148.333 296 164.333C296 171.533 296.533 179 297.333 180.867L298.667 184.333H315.867C331.733 184.333 333.333 184.067 334.667 181.8C335.333 180.333 336 172.6 336 164.6C336 145.667 336 145.667 317.2 145.667C308.133 145.667 302.667 145.133 301.6 144.067C299.467 141.933 299.467 116.067 301.6 113.933C302.667 112.867 308.133 112.333 317.467 112.333C328.667 112.333 332.267 111.933 333.867 110.2C335.733 108.467 336 103.4 336 74.8667C336 33.9333 337.2 36.3333 316.933 36.3333C308 36.3333 302.667 35.8 301.6 34.7333C300.533 33.6667 300 28.3333 300 19.6667C300 -1.13332 302.8 0.333344 261.333 0.333344C228.533 0.333344 226.667 0.466677 225.333 2.86668ZM293.467 40.3333C295.867 41.6667 296 43.5333 296 74.3333C296 105.133 295.867 107 293.467 108.333C292 109 284.933 109.667 277.867 109.667C260.133 109.667 260 109.8 260 128.333C260 137.533 259.467 143 258.4 144.067C256.267 146.2 230.4 146.2 228.267 144.067C227.067 142.867 226.667 129.8 226.667 93.1333C226.667 49.1333 226.933 43.6667 228.933 41.4C230.933 39.2667 233.733 39 260.933 39C279.067 39 291.867 39.5333 293.467 40.3333Z" fill="black"/>
<path d="M413.6 1.93336C412.533 3.00003 412 8.33336 412 17C412 36.0667 411.733 36.3334 393.867 36.3334C372.667 36.3334 374.667 28.4667 374.667 110.467C374.667 155.267 375.2 180.067 376 181.8C377.333 184.067 378.933 184.333 394.667 184.333C410.4 184.333 412 184.067 413.333 181.8C414.133 180.067 414.667 155.267 414.667 110.467C414.667 43.9334 414.8 41.6667 417.2 40.3334C418.8 39.5334 431.733 39 449.867 39C475.333 39 480.133 39.2667 481.867 41.1334C483.467 42.7334 484 46.2 484 56.3334C484 73.2667 483.6 73.6667 464.667 73.6667C456 73.6667 450.667 74.2 449.6 75.2667C448.533 76.3334 448 82.3334 448 93.2667C448 112.867 447.467 112.333 466 112.333C473.067 112.333 480 113 481.467 113.667C483.867 115 484 116.867 484 147.4C484 171.4 484.4 180.467 485.733 182.067C487.2 184.067 489.6 184.333 504.667 184.067L522 183.667L522.4 148.467C522.667 123.667 522.267 112.733 521.2 111.533C520.133 110.2 515.867 109.667 505.2 109.667C487.2 109.667 486.667 109.133 486.667 92.6C486.667 76.3334 486.667 76.3334 503.467 76.3334C511.2 76.3334 518.667 75.6667 520.133 75C522.4 73.6667 522.667 72.0667 522.667 56.3334C522.667 35.6667 523.333 36.3334 504.133 36.3334C487.067 36.3334 486.667 35.9334 486.667 17C486.667 8.33336 486.133 3.00003 485.067 1.93336C482.8 -0.333302 415.867 -0.333302 413.6 1.93336Z" fill="black"/>
<path d="M2.26665 225.933C0.133312 227.533 -2.16888e-05 234.2 0.266645 317.667L0.666645 407.667L72.6667 408.067C139.2 408.333 144.8 408.2 146.4 406.067C147.6 404.333 148 387.933 148 335C148 275 147.733 265.933 145.867 263.267C144 260.6 142.8 260.333 129.333 260.333C110.8 260.333 110.667 260.2 110.667 240.733C110.667 228.6 110.4 227 108.133 225.667C104.133 223.533 5.19998 223.8 2.26665 225.933ZM106.667 265.667C108.667 268.867 108.4 366.067 106.4 368.067C104.133 370.333 42.5333 370.333 40.2666 368.067C39.0666 366.867 38.6666 353.8 38.6666 317.133C38.6666 289.933 39.2 267 39.7333 266.2C41.6 263.4 44.8 263.133 75.0667 263.4C100.4 263.667 105.6 263.933 106.667 265.667Z" fill="black"/>
<path d="M226.4 225.8C224.4 226.867 224 229.267 224 241.133C224 260.733 224.267 260.333 207.2 260.333C199.467 260.333 192 261 190.533 261.667C188.133 263 188 264.867 188 298.067C188 323.533 188.4 333.533 189.6 334.733C190.667 335.8 196.133 336.333 205.333 336.333C223.6 336.333 224 336.733 224 352.867C224 369.8 224.133 369.667 207.2 369.667C199.467 369.667 192 370.333 190.533 371C188.267 372.333 188 373.933 188 389.8V407L191.467 408.333C193.333 409.133 200.667 409.667 207.733 409.667C226.4 409.667 226.667 409.4 226.667 391C226.667 371.267 224.667 372.333 261.733 372.333C279.2 372.333 291.867 372.867 293.467 373.667C295.733 375 296 376.6 296 389.4C296 409.133 295.733 408.867 315.067 409.4C338.267 410.067 336 418.333 336 335C336 252.467 338 260.333 316.933 260.333C308 260.333 302.667 259.8 301.6 258.733C300.533 257.667 300 252.333 300 243.4C300 223.133 302.4 224.333 261.733 224.333C241.733 224.333 227.733 225 226.4 225.8ZM293.467 264.333C295.867 265.667 296 267.533 296 298.333C296 329.133 295.867 331 293.467 332.333C291.867 333.133 278.933 333.667 260.8 333.667C235.333 333.667 230.533 333.4 228.8 331.533C226.933 329.8 226.667 324.867 226.667 298.6C226.667 281.533 227.2 267 227.733 266.2C228.267 265.4 229.6 264.333 230.667 263.933C234.4 262.6 290.667 263 293.467 264.333Z" fill="black"/>
<path d="M413.6 225.933C412.8 226.867 412 234.067 411.733 241.8C411.467 251.267 410.667 256.6 409.467 258.067C408 259.933 405.067 260.333 393.867 260.333C372.8 260.333 374.533 255 374.933 317.8C375.333 362.2 375.6 369.933 377.333 371C378.4 371.667 385.333 372.333 392.8 372.333C411.333 372.333 411.2 372.2 412 391.4C412.4 399.933 413.2 407.267 413.733 407.933C414.4 408.467 430.4 409 449.467 409C478.8 409 484.267 408.733 485.333 407C486 405.933 486.667 398.867 486.667 391.267C486.667 372.867 487.2 372.333 505.2 372.333C512.533 372.333 519.333 371.933 520.533 371.533C522.4 370.867 522.667 364.733 522.667 316.867C522.667 265.133 522.533 263 520.133 261.667C518.667 261 511.6 260.333 504.4 260.333C497.2 260.333 490.4 259.667 489.333 259C487.733 258.067 487.2 254.333 486.933 242.733C486.533 230.733 486 227.267 484.267 225.933C482.667 224.733 473.333 224.333 448.533 224.333C423.333 224.333 414.667 224.733 413.6 225.933ZM482.667 265.667C484.667 268.867 484.4 366.067 482.4 368.067C480.133 370.333 418.533 370.333 416.267 368.067C415.067 366.867 414.667 353.533 414.667 316.067C414.667 269.667 414.8 265.667 417.067 264.467C418.533 263.533 430.533 263.133 450.4 263.4C476.267 263.667 481.6 263.933 482.667 265.667Z" fill="black"/>
</svg>
